# xmcd CD database file
#
# Track frame offsets:
#	150
#	8528
#	19344
#	28684
#	51288
#	65981
#	118405
#	123698
#	174828
#	193712
#	197929
#
# Disc length: 3341 seconds
#
# Revision: 0
# Processed by: cddbd v1.5.1PL2 Copyright (c) Steve Scherf et al.
# Submitted via: CDex 1.50beta10
#
DISCID=a20d0b0b
DTITLE=Frank Zappa - Joe's Xmasage
DYEAR=2005
DGENRE=Rhythmic Soul
TTITLE0=Mormon Xmas Dance Report
TTITLE1=Prelude To ''The Purse''
TTITLE2=Mr Clean (alternate mix)
TTITLE3=Why Don'tcha Do Me Right
TTITLE4=The Muthers Power Trio
TTITLE5=The Purse
TTITLE6=The Moon Will Never Be The Same
TTITLE7=GTR Trio
TTITLE8=Suckit Rockit
TTITLE9=Mousie's First Xmas
TTITLE10=The Uncle Frankie Show
EXTD=YEAR: 2005
EXTT0=
EXTT1=
EXTT2=
EXTT3=
EXTT4=
EXTT5=
EXTT6=
EXTT7=
EXTT8=
EXTT9=
EXTT10=
PLAYORDER=
